<svg width="42" height="42" viewBox="0 0 42 42" fill="none" xmlns="http://www.w3.org/2000/svg">
<path fill-rule="evenodd" clip-rule="evenodd" d="M21 0C32.5962 0 42 9.4038 42 21C42 32.5962 32.5962 42 21 42C9.4038 42 0 32.5962 0 21C0 9.4038 9.4038 0 21 0Z" fill="#50AF95"/>
<path fill-rule="evenodd" clip-rule="evenodd" d="M23.6451 22.4388C23.4973 22.4504 22.734 22.4979 21.0314 22.4979C19.6772 22.4979 18.7157 22.4555 18.3783 22.4388C13.1448 22.1985 9.23851 21.2475 9.23851 20.1088C9.23851 18.9702 13.1448 18.0205 18.3783 17.7763V21.4916C18.7206 21.5174 19.7006 21.5778 21.0548 21.5778C22.6799 21.5778 23.4936 21.5071 23.6401 21.4929V17.7789C28.8625 18.0217 32.7603 18.9728 32.7603 20.1088C32.7603 21.2449 28.8638 22.1959 23.6401 22.4375L23.6451 22.4388ZM23.6451 17.3946V14.0699H30.9333V9H11.0901V14.0699H18.3771V17.3933C12.4542 17.6773 8 18.9021 8 20.3697C8 21.8374 12.4542 23.0608 18.3771 23.3461V34H23.6438V23.3423C29.5532 23.0582 34 21.8348 34 20.3684C34 18.9021 29.5569 17.6786 23.6438 17.3933L23.6451 17.3946Z" fill="white"/>
</svg>
