<svg width="24" height="24" viewBox="0 0 24 24" fill="none" xmlns="http://www.w3.org/2000/svg">
<path d="M12 13.1606C12.3569 13.1606 12.6558 12.8618 12.6558 12.5132V3.98828L12.606 2.75146L13.1704 3.34082L14.4238 4.67725C14.54 4.81006 14.7144 4.87646 14.8721 4.87646C15.2207 4.87646 15.478 4.62744 15.478 4.29541C15.478 4.11279 15.4116 3.97998 15.2871 3.85547L12.4814 1.14941C12.3154 0.983398 12.166 0.925293 12 0.925293C11.8257 0.925293 11.6846 0.983398 11.5186 1.14941L8.71289 3.85547C8.58838 3.97998 8.51367 4.11279 8.51367 4.29541C8.51367 4.62744 8.7627 4.87646 9.11133 4.87646C9.27734 4.87646 9.45166 4.81006 9.56787 4.67725L10.8296 3.34082L11.394 2.74316L11.3359 3.98828V12.5132C11.3359 12.8618 11.6431 13.1606 12 13.1606ZM7.23535 19.6602H16.7563C18.4995 19.6602 19.3628 18.7969 19.3628 17.0869V8.90234C19.3628 7.19238 18.4995 6.3291 16.7563 6.3291H14.4487V7.66553H16.7397C17.5532 7.66553 18.0264 8.10547 18.0264 8.96875V17.0205C18.0264 17.8838 17.5532 18.3237 16.7397 18.3237H7.26025C6.43018 18.3237 5.96533 17.8838 5.96533 17.0205V8.96875C5.96533 8.10547 6.43018 7.66553 7.26025 7.66553H9.55127V6.3291H7.23535C5.50879 6.3291 4.62891 7.18408 4.62891 8.90234V17.0869C4.62891 18.8052 5.50879 19.6602 7.23535 19.6602Z" fill="#54BCFF"/>
</svg>
