<svg width="45" height="27" viewBox="0 0 45 27" fill="none" xmlns="http://www.w3.org/2000/svg">
<path d="M28.7069 6.2069C28.7069 9.63487 25.928 12.4138 22.5 12.4138C19.072 12.4138 16.2931 9.63487 16.2931 6.2069C16.2931 2.77892 19.072 0 22.5 0C25.928 0 28.7069 2.77892 28.7069 6.2069Z" fill="white"/>
<path d="M15.8996 12.7733C13.1224 13.7018 11.1208 16.3239 11.1208 19.4135V26.8963H33.8794V19.4135C33.8794 16.3239 31.8777 13.7018 29.1005 12.7733C27.4143 14.4681 25.0797 15.5173 22.5 15.5173C19.9204 15.5173 17.5858 14.4681 15.8996 12.7733Z" fill="white"/>
<path d="M12.8104 8.37935C12.8104 10.7789 10.8651 12.7242 8.46554 12.7242C6.06596 12.7242 4.12071 10.7789 4.12071 8.37935C4.12071 5.97977 6.06596 4.03453 8.46554 4.03453C10.8651 4.03453 12.8104 5.97977 12.8104 8.37935Z" fill="#AEAEB2"/>
<path d="M40.8793 8.37935C40.8793 10.7789 38.934 12.7242 36.5345 12.7242C34.1349 12.7242 32.1896 10.7789 32.1896 8.37935C32.1896 5.97977 34.1349 4.03453 36.5345 4.03453C38.934 4.03453 40.8793 5.97977 40.8793 8.37935Z" fill="#AEAEB2"/>
<path d="M34.4591 14.5592C35.358 15.9598 35.8793 17.6259 35.8793 19.4137V22.8621H44.5V19.7242C44.5 16.9796 42.9205 14.604 40.6209 13.4567C39.5032 14.3574 38.0818 14.8966 36.5345 14.8966C35.8089 14.8966 35.111 14.7781 34.4591 14.5592Z" fill="#AEAEB2"/>
<path d="M10.5408 14.5594C9.8889 14.7782 9.19103 14.8968 8.46547 14.8968C6.9181 14.8968 5.49669 14.3575 4.3789 13.4567C2.07942 14.604 0.5 16.9796 0.5 19.7241V22.862H9.12068V19.4137C9.12068 17.626 9.64194 15.96 10.5408 14.5594Z" fill="#AEAEB2"/>
</svg>
